<mxfile host="app.diagrams.net" modified="2023-06-17T20:45:12.091Z" agent="Mozilla/5.0 (Windows NT 10.0; Win64; x64) AppleWebKit/537.36 (KHTML, like Gecko) Chrome/114.0.0.0 Safari/537.36" etag="UFKViRmTVjQivcASFbLA" version="21.4.0" type="github">
  <diagram name="‫עמוד-1‬" id="GPnjzbN_5mL8qTGkNEVC">
    <mxGraphModel dx="988" dy="535" grid="1" gridSize="10" guides="1" tooltips="1" connect="1" arrows="1" fold="1" page="1" pageScale="1" pageWidth="413" pageHeight="291" background="#e4d8d8" math="0" shadow="0">
      <root>
        <mxCell id="0" />
        <mxCell id="1" parent="0" />
        <mxCell id="O_M9rST-j9d9lwmmfin6-11" value="" style="rounded=0;whiteSpace=wrap;html=1;fillColor=none;shadow=1;glass=0;" vertex="1" parent="1">
          <mxGeometry x="460" y="66" width="490" height="400" as="geometry" />
        </mxCell>
        <mxCell id="O_M9rST-j9d9lwmmfin6-1" value="OpenSky Network" style="sketch=0;html=1;dashed=0;whitespace=wrap;fillColor=#2875E2;strokeColor=#ffffff;points=[[0.005,0.63,0],[0.1,0.2,0],[0.9,0.2,0],[0.5,0,0],[0.995,0.63,0],[0.72,0.99,0],[0.5,1,0],[0.28,0.99,0]];verticalLabelPosition=bottom;align=center;verticalAlign=top;shape=mxgraph.kubernetes.icon;prIcon=api" vertex="1" parent="1">
          <mxGeometry x="230" y="216" width="120" height="108" as="geometry" />
        </mxCell>
        <mxCell id="O_M9rST-j9d9lwmmfin6-5" value="PC&lt;br&gt;Storage" style="shape=datastore;whiteSpace=wrap;html=1;" vertex="1" parent="1">
          <mxGeometry x="490" y="356" width="80" height="80" as="geometry" />
        </mxCell>
        <mxCell id="O_M9rST-j9d9lwmmfin6-6" value="Main Process&lt;br&gt;(UI)" style="html=1;dashed=0;whiteSpace=wrap;" vertex="1" parent="1">
          <mxGeometry x="793" y="253" width="100" height="50" as="geometry" />
        </mxCell>
        <mxCell id="O_M9rST-j9d9lwmmfin6-7" value="Child Process" style="html=1;dashed=0;whiteSpace=wrap;" vertex="1" parent="1">
          <mxGeometry x="490" y="253" width="100" height="50" as="geometry" />
        </mxCell>
        <mxCell id="O_M9rST-j9d9lwmmfin6-10" value="" style="image;sketch=0;aspect=fixed;html=1;points=[];align=center;fontSize=12;image=img/lib/mscae/VM_Linux.svg;" vertex="1" parent="1">
          <mxGeometry x="490" y="86" width="50" height="46" as="geometry" />
        </mxCell>
        <mxCell id="O_M9rST-j9d9lwmmfin6-12" value="" style="endArrow=classic;startArrow=classic;html=1;rounded=0;exitX=0.995;exitY=0.63;exitDx=0;exitDy=0;exitPerimeter=0;" edge="1" parent="1" source="O_M9rST-j9d9lwmmfin6-1" target="O_M9rST-j9d9lwmmfin6-7">
          <mxGeometry width="50" height="50" relative="1" as="geometry">
            <mxPoint x="390" y="303" as="sourcePoint" />
            <mxPoint x="440" y="253" as="targetPoint" />
          </mxGeometry>
        </mxCell>
        <mxCell id="O_M9rST-j9d9lwmmfin6-13" value="" style="endArrow=classic;startArrow=classic;html=1;rounded=0;exitX=0.5;exitY=0;exitDx=0;exitDy=0;entryX=0.5;entryY=1;entryDx=0;entryDy=0;" edge="1" parent="1" source="O_M9rST-j9d9lwmmfin6-5" target="O_M9rST-j9d9lwmmfin6-7">
          <mxGeometry width="50" height="50" relative="1" as="geometry">
            <mxPoint x="359" y="294" as="sourcePoint" />
            <mxPoint x="500" y="290" as="targetPoint" />
          </mxGeometry>
        </mxCell>
        <mxCell id="O_M9rST-j9d9lwmmfin6-14" value="Pipes" style="sketch=0;outlineConnect=0;fontColor=#232F3E;gradientColor=none;fillColor=#3F8624;strokeColor=none;dashed=0;verticalLabelPosition=bottom;verticalAlign=top;align=center;html=1;fontSize=12;fontStyle=0;aspect=fixed;pointerEvents=1;shape=mxgraph.aws4.iot_analytics_pipeline;" vertex="1" parent="1">
          <mxGeometry x="660" y="257" width="78" height="42" as="geometry" />
        </mxCell>
        <mxCell id="O_M9rST-j9d9lwmmfin6-15" value="" style="endArrow=classic;startArrow=classic;html=1;rounded=0;exitX=1;exitY=0.5;exitDx=0;exitDy=0;" edge="1" parent="1" source="O_M9rST-j9d9lwmmfin6-7" target="O_M9rST-j9d9lwmmfin6-14">
          <mxGeometry width="50" height="50" relative="1" as="geometry">
            <mxPoint x="679" y="520" as="sourcePoint" />
            <mxPoint x="820" y="516" as="targetPoint" />
          </mxGeometry>
        </mxCell>
        <mxCell id="O_M9rST-j9d9lwmmfin6-16" value="" style="endArrow=classic;startArrow=classic;html=1;rounded=0;" edge="1" parent="1" source="O_M9rST-j9d9lwmmfin6-14">
          <mxGeometry width="50" height="50" relative="1" as="geometry">
            <mxPoint x="722" y="277.71000000000004" as="sourcePoint" />
            <mxPoint x="793" y="277.71000000000004" as="targetPoint" />
          </mxGeometry>
        </mxCell>
        <mxCell id="O_M9rST-j9d9lwmmfin6-21" value="Terminal" style="fontColor=#0066CC;verticalAlign=top;verticalLabelPosition=bottom;labelPosition=center;align=center;html=1;outlineConnect=0;fillColor=#CCCCCC;strokeColor=#6881B3;gradientColor=none;gradientDirection=north;strokeWidth=2;shape=mxgraph.networks.terminal;" vertex="1" parent="1">
          <mxGeometry x="803" y="356" width="80" height="65" as="geometry" />
        </mxCell>
        <mxCell id="O_M9rST-j9d9lwmmfin6-22" value="" style="endArrow=classic;startArrow=classic;html=1;rounded=0;entryX=0.5;entryY=0;entryDx=0;entryDy=0;entryPerimeter=0;" edge="1" parent="1" source="O_M9rST-j9d9lwmmfin6-6" target="O_M9rST-j9d9lwmmfin6-21">
          <mxGeometry width="50" height="50" relative="1" as="geometry">
            <mxPoint x="748" y="288" as="sourcePoint" />
            <mxPoint x="803" y="287.71000000000004" as="targetPoint" />
          </mxGeometry>
        </mxCell>
      </root>
    </mxGraphModel>
  </diagram>
</mxfile>
